<svg height='100px' width='100px'  fill="#000000" xmlns="http://www.w3.org/2000/svg" xmlns:xlink="http://www.w3.org/1999/xlink" version="1.1" x="0px" y="0px" viewBox="0 0 100 100" enable-background="new 0 0 100 100" xml:space="preserve"><path d="M93.5,50c0-0.6-0.3-1.1-0.7-1.4l-10.3-7.3l5.3-11.5c0.2-0.5,0.2-1.1-0.1-1.6c-0.3-0.5-0.8-0.8-1.4-0.9l-12.6-1.1l-1.1-12.6  c-0.1-0.6-0.4-1.1-0.9-1.4c-0.5-0.3-1.1-0.3-1.6-0.1l-11.5,5.3L51.4,7.2c-0.7-0.9-2.2-0.9-2.8,0l-7.3,10.3l-11.5-5.3  c-0.5-0.2-1.1-0.2-1.6,0.1c-0.5,0.3-0.8,0.8-0.9,1.4l-1.1,12.6l-12.6,1.1c-0.6,0.1-1.1,0.4-1.4,0.9s-0.3,1.1-0.1,1.6l5.3,11.5  L7.2,48.6c-0.5,0.3-0.7,0.9-0.7,1.4s0.3,1.1,0.7,1.4l10.3,7.3l-5.3,11.5c-0.2,0.5-0.2,1.1,0.1,1.6c0.3,0.5,0.8,0.8,1.4,0.9l12.6,1.1  l1.1,12.6c0.1,0.6,0.4,1.1,0.9,1.4c0.5,0.3,1.1,0.3,1.6,0.1l11.5-5.3l7.3,10.3c0.3,0.5,0.9,0.7,1.4,0.7c0.6,0,1.1-0.3,1.4-0.7  l7.3-10.3l11.5,5.3c0.5,0.2,1.1,0.2,1.6-0.1c0.5-0.3,0.8-0.8,0.9-1.4l1.1-12.6l12.6-1.1c0.6-0.1,1.1-0.4,1.4-0.9  c0.3-0.5,0.3-1.1,0.1-1.6l-5.3-11.5l10.3-7.3C93.3,51.1,93.5,50.5,93.5,50z"></path></svg>