<svg height='100px' width='100px'  fill="#000000" xmlns:dc="http://purl.org/dc/elements/1.1/" xmlns:cc="http://creativecommons.org/ns#" xmlns:rdf="http://www.w3.org/1999/02/22-rdf-syntax-ns#" xmlns:svg="http://www.w3.org/2000/svg" xmlns="http://www.w3.org/2000/svg" xmlns:sodipodi="http://sodipodi.sourceforge.net/DTD/sodipodi-0.dtd" xmlns:inkscape="http://www.inkscape.org/namespaces/inkscape" version="1.1" x="0px" y="0px" viewBox="0 0 100 100"><g transform="translate(0,-952.36217)"><path style="font-size:medium;font-style:normal;font-variant:normal;font-weight:normal;font-stretch:normal;text-indent:0;text-align:start;text-decoration:none;line-height:normal;letter-spacing:normal;word-spacing:normal;text-transform:none;direction:ltr;block-progression:tb;writing-mode:lr-tb;text-anchor:start;baseline-shift:baseline;opacity:1;color:#000000;fill:#000000;fill-opacity:1;stroke:none;stroke-width:2;marker:none;visibility:visible;display:inline;overflow:visible;enable-background:accumulate;font-family:Sans;-inkscape-font-specification:Sans" d="M 41 27 C 31.070719 27 23 35.07072 23 45 C 23 46.01301 23.150914 46.99946 23.3125 47.96875 C 18.468721 49.85825 15 54.4861 15 60 C 15 67.1847 20.815297 73 28 73 L 72 73 C 79.184703 73 85 67.1847 85 60 C 85 54.944 82.088793 50.61715 77.875 48.46875 C 77.093133 40.36612 70.301355 34 62 34 C 59.865785 34 57.851833 34.4911 56 35.25 C 52.79015 30.32942 47.30962 27 41 27 z M 41 29 C 46.897046 29 52.002677 32.19418 54.78125 36.9375 A 1.0001 1.0001 0 0 0 56.09375 37.34375 C 57.901926 36.49745 59.886924 36 62 36 C 69.447097 36 75.513987 41.79809 75.96875 49.125 A 1.0001 1.0001 0 0 0 76.5625 49.96875 C 80.369251 51.69275 83 55.5188 83 60 C 83 66.1113 78.111297 71 72 71 L 28 71 C 21.888703 71 17 66.1113 17 60 C 17 55.0587 20.236836 50.93785 24.6875 49.53125 A 1.0001 1.0001 0 0 0 25.34375 48.34375 C 25.114304 47.26489 25 46.14694 25 45 C 25 36.1516 32.151599 29 41 29 z M 60.9375 44.96875 A 1.0001 1.0001 0 0 0 60.28125 45.3125 L 46 60.5625 L 39.71875 54.28125 A 1.0054956 1.0054956 0 1 0 38.28125 55.6875 L 45.28125 62.6875 A 1.0001 1.0001 0 0 0 46.71875 62.65625 L 61.71875 46.65625 A 1.0001 1.0001 0 0 0 60.9375 44.96875 z " transform="translate(0,952.36217)"></path></g></svg>